#!OML:ASF F:\VICON\USERDATA\INSTALL\rory3\rory3.ASF
:FULLY-SPECIFIED
:DEGREES
109
root 0.6474049442391673 17.798072375170168 35.70998892519892 -4.065443367166158 -2.4812285822947215 -1.3614819384394155
lfemur 0.7854152104663292 -1.1317291702229764 -19.290083769739525
ltibia 50.31085350460183
lfoot -11.753058857711707 -4.052116108967851
ltoes -3.3164698455667794
rfemur -7.766379190409708 3.975538596830487 23.940259942397443
rtibia 47.96473804199047
rfoot -20.71111769577775 -9.874538410441602
rtoes -3.570957540248698
lowerback 9.734126967216124 0.5570507619111622 0.9695628648754513
upperback 0.17328007729341371 0.884382251402446 1.4029372657360148
thorax -5.445046112324323 0.43175791119066115 0.4971855849313247
lowerneck -16.290380883205955 -3.031809789236519 -1.3927404869063644
upperneck 21.404344219204464 -3.9338077017821833 0.5007788961769827
head 9.56062472057327 -1.9195995324497885 -0.13737065558291323
lclavicle -3.6163629441408325e-16 5.803562888424699e-16
lhumerus -29.662384066903105 5.022013771532401 80.18232983081573
lradius 23.894927003535262
lwrist 7.620721596417448
lhand -28.775357080467074 20.056871677782105
lfingers 7.12502
lthumb -2.4415974963678044 49.51281555165114
rclavicle -3.6163629433970185e-16 5.803562888926912e-16
rhumerus -28.833080806692887 -17.310029203361328 -78.09875268655635
rradius 33.26940780782089
rwrist 3.224143858337043
rhand -17.784185768005923 21.11746099441091
rfingers 7.12502
rthumb 8.814274544763435 -7.1107819551808396
110
root 0.6277963137423337 17.79103030513218 35.07917180317047 -4.029782326630627 -2.6717215684916047 -1.406940605467621
lfemur 1.2079744060459934 -1.1298883701025013 -19.28889241902258
ltibia 49.562232615976484
lfoot -12.101939033414032 -3.966990563534258
ltoes -5.02358990106191
rfemur -8.52197187321832 4.190704435075485 24.052096757288833
rtibia 48.2276975221173
rfoot -20.267803568527235 -9.675220297284437
rtoes -3.6801660122386632
lowerback 9.76605476871819 0.5604580445215842 0.874985605653743
upperback 0.1819980315854627 0.8678431638005067 1.35493388195551
thorax -5.4109456925252015 0.4405048442033731 0.548533769590082
lowerneck -16.308474750601665 -3.0255006037023615 -1.3945921449887861
upperneck 21.496805300608166 -3.9231460916863417 0.49435160392726
head 9.607195962395181 -1.912291531498599 -0.13682047697367308
lclavicle -3.616362944210338e-16 5.803562888378905e-16
lhumerus -29.340222234196588 4.074585687687051 79.97788090987768
lradius 24.163117754974994
lwrist 7.640491309163469
lhand -28.704636330713047 19.953094739266348
lfingers 7.12502
lthumb -2.4007567977519244 49.443324375914244
rclavicle -3.61636294340899e-16 5.803562888919777e-16
rhumerus -28.731653235246142 -17.262269867750998 -78.19900293968209
rradius 33.2139829644035
rwrist 3.5225481529822327
rhand -17.832457487441012 20.99812085232774
rfingers 7.12502
rthumb 8.775933386237723 -7.387750132685556
111
root 0.6111805905829149 17.779973840679574 34.522845092936535 -4.121481049662643 -2.899904089220615 -1.1451750223389667
lfemur 1.8499111240090347 -1.166040265168716 -19.627015593320312
ltibia 48.71608044408268
lfoot -12.400381628244455 -3.811222418915567
ltoes -6.8876540001475615
rfemur -9.280215940049676 4.351031084829062 23.90193457868201
rtibia 48.517805241793226
rfoot -19.798594432474033 -9.353844574176708
rtoes -2.162672094657747
lowerback 9.795574950051396 0.5399312957988971 0.478745326197749
upperback 0.19724384490675057 0.7707162408982688 1.2753442986438517
thorax -5.432630875819129 0.4019432244887938 0.6417561942247607
lowerneck -16.320704556564557 -3.0215905947243566 -1.407193705924299
upperneck 21.50725010582691 -3.9225136831368737 0.5510371318405366
head 9.61765794543139 -1.9095396446002444 -0.10992429675996931
lclavicle -3.616362944270972e-16 5.803562888339815e-16
lhumerus -27.893050342966497 4.12867798811571 80.09186834776953
lradius 24.34457768037945
lwrist 7.584871716463661
lhand -28.853470306606503 19.961103569973577
lfingers 7.12502
lthumb -2.604758981208414 49.33367050818697
rclavicle -3.6163629433710383e-16 5.803562888945685e-16
rhumerus -28.509327672147844 -17.20802773212485 -78.44559410030338
rradius 33.16469562526104
rwrist 3.6892751167214644
rhand -17.833294867546158 21.007704453613332
rfingers 7.12502
rthumb 8.779365400153583 -7.549256744604725
112
root 0.6105655627507561 17.775257662516292 34.65198988404547 -4.085752512441845 -2.9522639946953673 -0.9279272654396968
lfemur 2.4285412710048266 -1.2952337874239666 -19.93314034660728
ltibia 47.831935963564106
lfoot -12.744968920771129 -3.591156577079439
ltoes -8.197741306435823
rfemur -9.91330418706792 4.406431390791065 23.781961978651953
rtibia 48.517736154329334
rfoot -19.481779501959245 -9.056933531347894
rtoes -1.1129554775137072
lowerback 9.793704073388227 0.4700830608921623 0.21255788506126816
upperback 0.23514624647424573 0.5834946499629513 1.2007283968760587
thorax -5.424419514190273 0.304212733220358 0.8015846726304319
lowerneck -16.35124159495311 -3.012743276008499 -1.418264895368446
upperneck 21.469467819146615 -3.910930766453383 0.5946683382309867
head 9.59922229876626 -1.9045604509393748 -0.08553920131867818
lclavicle -3.616362944275632e-16 5.803562888338048e-16
lhumerus -27.483405381934478 3.3247633740162996 79.92510210660606
lradius 24.635739674802387
lwrist 7.2461006173045295
lhand -28.905490822971114 19.78136245799558
lfingers 7.12502
lthumb -2.652477808267296 49.18811879312655
rclavicle -3.6163629433920427e-16 5.803562888933372e-16
rhumerus -28.251752603483364 -17.01037718957171 -78.57107378103511
rradius 33.10588158599385
rwrist 3.6079659086190996
rhand -17.854953905350605 20.951169879760656
rfingers 7.12502
rthumb 8.868787755641927 -7.554351423517344
113
root 0.6033027835803262 17.764412496682432 34.39286836652177 -4.181456600142609 -3.065886648939403 -0.5791475838026447
lfemur 3.2197406457878106 -1.4473572339159755 -20.349669924538794
ltibia 46.924292692938714
lfoot -13.094920294911205 -3.366071972216476
ltoes -9.221781049150147
rfemur -10.56727339381146 4.380388948285659 23.510846343843482
rtibia 48.66805052832225
rfoot -19.313255742729467 -8.883915567292643
rtoes 0.15552613997411768
lowerback 9.828957993011647 0.41684513988991334 -0.1384447476857138
upperback 0.2644911455254345 0.44602803242972533 1.1218594759180116
thorax -5.401928588303221 0.2575701410838239 0.9996981737089727
lowerneck -16.42030832517442 -3.011415341991855 -1.4381723724822084
upperneck 21.455365524469318 -3.904350243519024 0.6352176691922616
head 9.617185590631186 -1.8985052697959484 -0.06759395821276137
lclavicle -3.616362944326211e-16 5.803562888306138e-16
lhumerus -26.208373268612092 3.506231036423313 80.032535737143
lradius 24.896321748749635
lwrist 7.105937240270796
lhand -29.031048927944223 19.853181318425257
lfingers 7.12502
lthumb -2.7705238253688522 49.209609063240464
rclavicle -3.616362943413496e-16 5.80356288892134e-16
rhumerus -28.066860083632516 -16.9207198258657 -78.74612677072069
rradius 33.07700071864121
rwrist 3.677915633731855
rhand -17.86452495555775 20.976008919065222
rfingers 7.12502
rthumb 8.847033934080915 -7.733565515996702
114
root 0.6006528110143801 17.770875306651128 34.22140242582594 -3.8450937976683357 -2.9928861767406776 -0.9934969186221247
lfemur 3.2893579090217564 -1.484756299760244 -20.03817091493154
ltibia 46.59739565726942
lfoot -13.457042967648535 -3.0280962951977957
ltoes -10.556992910228898
rfemur -10.897079251941804 4.380842299577231 23.940468989229483
rtibia 48.01341153525786
rfoot -19.23157681608462 -8.760807224566587
rtoes 0.5837021742950483
lowerback 9.768630272053583 0.3107119892615185 0.06413530578093907
upperback 0.2460850928715947 0.3158320220012333 1.163052064712985
thorax -5.482658253966497 0.18189436472814932 1.1010179096931747
lowerneck -16.42504325221799 -3.009055467982263 -1.4712677991555945
upperneck 21.358735207582935 -3.9017314593263186 0.6398547235738357
head 9.572049613176073 -1.8969610439817775 -0.05539598288838988
lclavicle -3.616362944316295e-16 5.803562888314497e-16
lhumerus -26.18204423135652 2.717790746654781 79.82080914998443
lradius 25.221683369770965
lwrist 6.96756089198805
lhand -28.852407946557662 19.508578688248406
lfingers 7.12502
lthumb -2.5734852013453464 48.896484258168314
rclavicle -3.6163629434258597e-16 5.803562888913867e-16
rhumerus -27.74492564093317 -16.707453628169784 -78.96149447988661
rradius 33.030805859035794
rwrist 3.688075606968251
rhand -17.869011497082763 20.982002485923346
rfingers 7.12502
rthumb 8.918034666063337 -7.767437549949743
115
root 0.6173235651242246 17.805885204475118 34.155323054116515 -3.1697419819198416 -2.6849562394367794 -1.9151276473538557
lfemur 2.9489009079841075 -1.4896791143158659 -19.129583469159986
ltibia 46.69195153211844
lfoot -13.631975472753041 -2.487362504465351
ltoes -8.700933902559449
rfemur -10.72302994689227 4.421512115185022 24.83027352043491
rtibia 46.06060309336075
rfoot -19.04990785672969 -8.558214633084386
rtoes -0.4766427104407702
lowerback 9.67871383446104 0.13093685035183836 0.7495755898321039
upperback 0.2024031681936432 0.17548869000582157 1.3051567481760729
thorax -5.538170027184194 0.114542450190906 1.2390334843032385
lowerneck -16.441308919453288 -3.0056528641518936 -1.5027959961228343
upperneck 21.3062364225849 -3.8856766083183403 0.5396996384160839
head 9.538160154890669 -1.8933063779879002 -0.09345082483521369
lclavicle -3.616362944323619e-16 5.803562888309466e-16
lhumerus -25.380924959232992 2.8816440541744104 79.91595092280376
lradius 25.607549684408404
lwrist 6.949828579608527
lhand -28.508685045420304 20.51577897589081
lfingers 7.12502
lthumb -2.1417152249869926 50.38121848580896
rclavicle -3.6163629434465885e-16 5.803562888899885e-16
rhumerus -27.417821242210895 -16.52452443660978 -79.17320854752107
rradius 32.94560042489784
rwrist 3.7212471519030887
rhand -17.83276691461991 21.12349777032603
rfingers 7.12502
rthumb 8.945601935062115 -7.689370694766154
116
root 0.6305074250190075 17.833116400502036 34.1670623965873 -2.87594682341704 -2.7073038130135836 -2.243613130256188
lfemur 3.0222117552788585 -1.5385432741250056 -18.780142401068726
ltibia 46.70658685048383
lfoot -13.909951000992056 -2.0529053847019885
ltoes -7.346559961320164
rfemur -10.421535644346307 4.497891598379655 25.246835281266804
rtibia 44.33780768644084
rfoot -18.968010745517418 -8.354538245492028
rtoes -0.9581835447899669
lowerback 9.622161689051428 -0.006891690982759546 0.9228501744721154
upperback 0.17519845482596302 0.0536668246998534 1.4068309715997862
thorax -5.572429156669326 0.04593276969050414 1.3765092891391064
lowerneck -16.45452418503874 -2.998017115612293 -1.5180001675063222
upperneck 21.29011641607867 -3.8659292712080973 0.46379724784523046
head 9.533003148420086 -1.8876663897441925 -0.12390038563868305
lclavicle -3.6163629443122234e-16 5.803562888316991e-16
lhumerus -25.7353801517273 2.2676922045172185 79.7029148805283
lradius 26.040050438197188
lwrist 7.121221302584862
lhand -28.30102096055744 20.01545900341202
lfingers 7.12502
lthumb -1.836397872030117 50.09082285210941
rclavicle -3.616362943363548e-16 5.803562888955296e-16
rhumerus -27.20207805303413 -16.201910539295458 -79.18883912313689
rradius 32.86008422640445
rwrist 3.2414178931381596
rhand -17.877463320881507 21.144927047277367
rfingers 7.12502
rthumb 8.945152117386725 -7.50813885464958
